<?xml version="1.0" standalone="no"?>
<!DOCTYPE svg PUBLIC "-//W3C//DTD SVG 20010904//EN"
 "http://www.w3.org/TR/2001/REC-SVG-20010904/DTD/svg10.dtd">
<svg version="1.0" xmlns="http://www.w3.org/2000/svg"
 width="371.000000pt" height="371.000000pt" viewBox="0 0 371.000000 371.000000"
 preserveAspectRatio="xMidYMid meet">
<metadata>
Created by potrace 1.11, written by Peter Selinger 2001-2013
</metadata>
<g transform="translate(0.000000,371.000000) scale(0.100000,-0.100000)"
fill="#000000" stroke="none">
<path d="M2685 3148 c-272 -51 -482 -213 -571 -441 -31 -77 -38 -124 -38 -227
0 -241 68 -389 244 -529 95 -75 237 -142 556 -262 214 -80 279 -115 350 -190
54 -58 76 -92 102 -159 44 -113 47 -225 11 -345 -38 -126 -113 -201 -247 -247
-95 -32 -285 -32 -387 0 -245 76 -442 315 -542 659 l-18 61 -70 -1 -70 -2 1
-100 c1 -55 5 -208 9 -340 4 -132 8 -277 8 -323 l2 -82 72 0 72 0 31 55 c17
30 35 57 40 60 5 3 44 -12 87 -34 96 -48 209 -86 328 -112 123 -26 344 -21
460 10 217 58 414 203 506 373 35 64 39 76 65 163 23 77 27 250 8 342 -55 273
-238 426 -729 609 -141 52 -289 119 -353 161 -145 92 -213 225 -209 402 4 138
82 254 213 316 70 33 129 44 223 40 220 -10 379 -126 495 -363 33 -65 93 -232
116 -320 l11 -43 72 3 72 3 -4 195 c-1 107 -4 260 -6 340 -2 80 -3 177 -4 216
l-1 70 -72 -2 c-40 -1 -74 -7 -76 -12 -7 -23 -63 -103 -70 -100 -4 2 -59 29
-122 60 -151 76 -242 99 -395 103 -66 1 -142 -1 -170 -7z"/>
<path d="M649 3080 c0 -14 -2 -41 -3 -62 l-2 -36 81 -12 c143 -22 246 -69 276
-128 12 -22 14 -160 16 -792 2 -890 -2 -951 -64 -1125 -35 -98 -97 -166 -191
-207 -58 -27 -221 -31 -293 -8 -54 17 -118 59 -153 100 l-26 31 21 42 c12 23
34 61 50 83 39 58 95 172 104 213 19 90 -9 180 -70 227 -84 64 -217 64 -292
-1 -37 -31 -76 -95 -91 -149 -11 -42 -8 -203 5 -260 46 -199 203 -354 418
-412 71 -19 279 -27 350 -14 290 56 509 259 587 548 20 75 21 99 23 887 2 793
2 811 22 856 16 36 30 51 64 67 24 11 60 23 79 26 19 3 68 11 108 17 39 6 72
14 73 18 6 35 2 111 -6 112 -5 1 -252 2 -548 3 l-537 1 -1 -25z"/>
</g>
</svg>
